<svg width="1122" height="384" viewBox="0 0 1122 384" fill="none" xmlns="http://www.w3.org/2000/svg">
<mask id="mask0_0_1" style="mask-type:luminance" maskUnits="userSpaceOnUse" x="0" y="0" width="384" height="384">
<path d="M280.28 0.0100098H103.28C46.24 0.0100098 0 46.2501 0 103.29V280.29C0 337.33 46.24 383.57 103.28 383.57H280.28C337.32 383.57 383.56 337.33 383.56 280.29V103.29C383.56 46.2501 337.32 0.0100098 280.28 0.0100098Z" fill="white"/>
</mask>
<g mask="url(#mask0_0_1)">
<path d="M383.56 0.0100098H0V383.57H383.56V0.0100098Z" fill="url(#paint0_linear_0_1)"/>
<path opacity="0.8" d="M383.56 168.19H0V230.87H383.56V168.19Z" fill="#C5E5FF"/>
<path d="M124.26 195.39H100.74V203.68H124.26V195.39Z" fill="#55A2FF"/>
<path d="M196.49 195.39H172.97V203.68H196.49V195.39Z" fill="#55A2FF"/>
<path d="M268.72 195.39H245.2V203.68H268.72V195.39Z" fill="#55A2FF"/>
<path d="M340.95 195.39H317.43V203.68H340.95V195.39Z" fill="#55A2FF"/>
<g filter="url(#filter0_d_0_1)">
<path d="M290.6 383.57H78.88L139.28 159.95C142.17 149.25 140.42 137.84 133.96 128.57C127.83 119.78 118.07 112.53 103.5 118.64C105.8 117.49 161.35 90.23 184.74 118.68C208.13 90.24 263.68 117.49 265.98 118.64C251.41 112.52 241.65 119.78 235.52 128.57C229.06 137.85 227.31 149.26 230.2 159.95L290.6 383.57Z" fill="#C5E5FF"/>
</g>
<g filter="url(#filter1_d_0_1)">
<path d="M241.89 97.8401C230.09 82.6201 184.74 96.05 184.74 96.05C184.74 96.05 139.38 82.6301 127.59 97.8401C127.59 97.8401 123.6 73.41 184.74 73.41C245.88 73.41 241.89 97.8401 241.89 97.8401Z" fill="#C5E5FF"/>
</g>
<g filter="url(#filter2_d_0_1)">
<path d="M184.73 66.9C234.2 66.9 247.09 80.62 250.35 89.01H263.17C267.75 89.01 269.57 83.08 265.78 80.51L192.33 30.74C187.74 27.63 181.72 27.63 177.13 30.74L103.68 80.51C99.89 83.08 101.71 89.01 106.29 89.01H119.11C122.37 80.61 135.26 66.9 184.73 66.9Z" fill="#C5E5FF"/>
</g>
<path d="M187.73 144H181.74V163.68H187.73V144Z" fill="#55A2FF"/>
<path d="M187.73 191.29H181.74V210.97H187.73V191.29Z" fill="#55A2FF"/>
<path d="M187.73 238.57H181.74V258.25H187.73V238.57Z" fill="#55A2FF"/>
<path d="M187.73 285.86H181.74V305.54H187.73V285.86Z" fill="#55A2FF"/>
<path d="M187.73 333.15H181.74V352.83H187.73V333.15Z" fill="#55A2FF"/>
<path d="M52.03 195.39H28.51V203.68H52.03V195.39Z" fill="#55A2FF"/>
</g>
<path d="M527.785 267.699C513.558 267.699 501.223 264.632 490.781 258.497C480.339 252.232 472.246 243.29 466.503 231.674C460.89 220.057 458.084 206.156 458.084 189.97C458.084 173.916 460.89 160.08 466.503 148.463C472.246 136.846 480.339 127.97 490.781 121.835C501.223 115.57 513.558 112.437 527.785 112.437C542.012 112.437 554.347 115.57 564.789 121.835C575.231 127.97 583.259 136.846 588.871 148.463C594.484 160.08 597.29 173.916 597.29 189.97C597.29 206.156 594.484 220.057 588.871 231.674C583.259 243.29 575.231 252.232 564.789 258.497C554.347 264.632 542.012 267.699 527.785 267.699ZM527.785 242.442C536.269 242.442 543.644 240.419 549.909 236.373C556.305 232.196 561.2 226.191 564.593 218.36C567.987 210.398 569.684 200.935 569.684 189.97C569.684 179.137 567.987 169.804 564.593 161.972C561.2 154.01 556.305 148.006 549.909 143.96C543.644 139.783 536.269 137.694 527.785 137.694C519.301 137.694 511.861 139.783 505.465 143.96C499.069 148.006 494.174 154.01 490.781 161.972C487.387 169.804 485.69 179.137 485.69 189.97C485.69 200.935 487.387 210.398 490.781 218.36C494.174 226.191 499.069 232.196 505.465 236.373C511.861 240.419 519.301 242.442 527.785 242.442ZM619.526 307.053V153.749H645.566V168.042H646.545C650.331 162.69 654.964 158.513 660.446 155.511C666.059 152.509 671.998 151.008 678.263 151.008C687.139 151.008 694.971 153.358 701.758 158.057C708.676 162.756 714.028 169.412 717.813 178.027C721.598 186.642 723.491 196.562 723.491 207.787C723.491 219.665 721.598 230.173 717.813 239.309C714.028 248.316 708.676 255.299 701.758 260.259C694.971 265.219 687.074 267.699 678.068 267.699C671.541 267.699 665.537 266.198 660.055 263.196C654.703 260.324 650.2 256.147 646.545 250.665H645.566V307.053H619.526ZM644.783 209.354C644.783 216.01 645.827 221.884 647.916 226.975C650.004 232.065 652.941 236.046 656.726 238.918C660.642 241.659 665.145 243.029 670.236 243.029C675.457 243.029 680.091 241.659 684.137 238.918C688.183 236.046 691.316 232.065 693.535 226.975C695.884 221.884 697.059 216.01 697.059 209.354C697.059 202.697 695.95 196.823 693.731 191.732C691.512 186.642 688.444 182.726 684.529 179.985C680.613 177.113 676.044 175.678 670.823 175.678C665.733 175.678 661.164 177.113 657.118 179.985C653.202 182.726 650.135 186.642 647.916 191.732C645.827 196.823 644.783 202.697 644.783 209.354ZM787.081 268.482C775.725 268.482 766.98 265.349 760.845 259.084C754.841 252.688 751.839 243.552 751.839 231.674V120.856H777.879V228.345C777.879 233.175 779.184 236.895 781.795 239.505C784.536 242.116 788.321 243.421 793.151 243.421C797.067 243.421 801.178 242.703 805.486 241.267V265.741C799.873 267.568 793.738 268.482 787.081 268.482ZM734.61 178.223V153.749H807.835V178.223H734.61ZM852.497 264.958H826.456V153.749H852.497V264.958ZM855.433 121.248C855.433 126.208 853.932 130.124 850.93 132.995C848.059 135.737 844.143 137.107 839.183 137.107C834.353 137.107 830.503 135.737 827.631 132.995C824.89 130.124 823.52 126.208 823.52 121.248C823.52 116.419 824.89 112.568 827.631 109.696C830.503 106.825 834.353 105.389 839.183 105.389C844.143 105.389 848.059 106.825 850.93 109.696C853.932 112.568 855.433 116.419 855.433 121.248ZM946.324 267.699C932.097 267.699 919.762 264.632 909.32 258.497C898.878 252.232 890.785 243.29 885.042 231.674C879.429 220.057 876.623 206.156 876.623 189.97C876.623 173.916 879.429 160.08 885.042 148.463C890.785 136.846 898.878 127.97 909.32 121.835C919.762 115.57 932.097 112.437 946.324 112.437C960.552 112.437 972.886 115.57 983.329 121.835C993.771 127.97 1001.8 136.846 1007.41 148.463C1013.02 160.08 1015.83 173.916 1015.83 189.97C1015.83 206.156 1013.02 220.057 1007.41 231.674C1001.8 243.29 993.771 252.232 983.329 258.497C972.886 264.632 960.552 267.699 946.324 267.699ZM946.324 242.442C954.809 242.442 962.183 240.419 968.449 236.373C974.844 232.196 979.739 226.191 983.133 218.36C986.527 210.398 988.223 200.935 988.223 189.97C988.223 179.137 986.527 169.804 983.133 161.972C979.739 154.01 974.844 148.006 968.449 143.96C962.183 139.783 954.809 137.694 946.324 137.694C937.84 137.694 930.4 139.783 924.004 143.96C917.608 148.006 912.714 154.01 909.32 161.972C905.926 169.804 904.229 179.137 904.229 189.97C904.229 200.935 905.926 210.398 909.32 218.36C912.714 226.191 917.608 232.196 924.004 236.373C930.4 240.419 937.84 242.442 946.324 242.442ZM1062.6 267.699C1051.76 267.699 1042.49 265.154 1034.79 260.063C1027.09 254.973 1021.87 248.055 1019.13 239.309L1040.67 224.625C1043.41 230.89 1046.54 235.459 1050.07 238.33C1053.59 241.072 1057.77 242.442 1062.6 242.442C1068.34 242.442 1072.71 240.68 1075.71 237.156C1078.72 233.501 1080.22 227.823 1080.22 220.122V115.179H1107.24V222.667C1107.24 237.547 1103.26 248.773 1095.29 256.343C1087.46 263.914 1076.56 267.699 1062.6 267.699Z" fill="#66ACFF"/>
<path d="M848.3 312.47H464.37C459.582 312.47 455.7 316.352 455.7 321.14V321.9C455.7 326.688 459.582 330.57 464.37 330.57H848.3C853.088 330.57 856.97 326.688 856.97 321.9V321.14C856.97 316.352 853.088 312.47 848.3 312.47Z" fill="#9CD2FF"/>
<path d="M905.48 312.47H904.72C899.932 312.47 896.05 316.352 896.05 321.14V321.9C896.05 326.688 899.932 330.57 904.72 330.57H905.48C910.268 330.57 914.15 326.688 914.15 321.9V321.14C914.15 316.352 910.268 312.47 905.48 312.47Z" fill="#9CD2FF"/>
<defs>
<filter id="filter0_d_0_1" x="55.86" y="82.7454" width="257.76" height="323.845" filterUnits="userSpaceOnUse" color-interpolation-filters="sRGB">
<feFlood flood-opacity="0" result="BackgroundImageFix"/>
<feColorMatrix in="SourceAlpha" type="matrix" values="0 0 0 0 0 0 0 0 0 0 0 0 0 0 0 0 0 0 127 0" result="hardAlpha"/>
<feOffset/>
<feGaussianBlur stdDeviation="11.51"/>
<feColorMatrix type="matrix" values="0 0 0 0 0.533333 0 0 0 0 0.768627 0 0 0 0 1 0 0 0 0.75 0"/>
<feBlend mode="normal" in2="BackgroundImageFix" result="effect1_dropShadow_0_1"/>
<feBlend mode="normal" in="SourceGraphic" in2="effect1_dropShadow_0_1" result="shape"/>
</filter>
<filter id="filter1_d_0_1" x="104.517" y="50.39" width="160.446" height="70.4701" filterUnits="userSpaceOnUse" color-interpolation-filters="sRGB">
<feFlood flood-opacity="0" result="BackgroundImageFix"/>
<feColorMatrix in="SourceAlpha" type="matrix" values="0 0 0 0 0 0 0 0 0 0 0 0 0 0 0 0 0 0 127 0" result="hardAlpha"/>
<feOffset/>
<feGaussianBlur stdDeviation="11.51"/>
<feColorMatrix type="matrix" values="0 0 0 0 0.533333 0 0 0 0 0.768627 0 0 0 0 1 0 0 0 0.75 0"/>
<feBlend mode="normal" in2="BackgroundImageFix" result="effect1_dropShadow_0_1"/>
<feBlend mode="normal" in="SourceGraphic" in2="effect1_dropShadow_0_1" result="shape"/>
</filter>
<filter id="filter2_d_0_1" x="78.6126" y="5.38747" width="212.235" height="106.643" filterUnits="userSpaceOnUse" color-interpolation-filters="sRGB">
<feFlood flood-opacity="0" result="BackgroundImageFix"/>
<feColorMatrix in="SourceAlpha" type="matrix" values="0 0 0 0 0 0 0 0 0 0 0 0 0 0 0 0 0 0 127 0" result="hardAlpha"/>
<feOffset/>
<feGaussianBlur stdDeviation="11.51"/>
<feColorMatrix type="matrix" values="0 0 0 0 0.533333 0 0 0 0 0.768627 0 0 0 0 1 0 0 0 0.75 0"/>
<feBlend mode="normal" in2="BackgroundImageFix" result="effect1_dropShadow_0_1"/>
<feBlend mode="normal" in="SourceGraphic" in2="effect1_dropShadow_0_1" result="shape"/>
</filter>
<linearGradient id="paint0_linear_0_1" x1="191.78" y1="383.57" x2="191.78" y2="0.0100098" gradientUnits="userSpaceOnUse">
<stop stop-color="#8DC6FF"/>
<stop offset="1" stop-color="#55A2FF"/>
</linearGradient>
</defs>
</svg>
